<?xml version="1.0" standalone="no"?>
<!DOCTYPE svg PUBLIC "-//W3C//DTD SVG 20010904//EN"
 "http://www.w3.org/TR/2001/REC-SVG-20010904/DTD/svg10.dtd">
<svg version="1.0" xmlns="http://www.w3.org/2000/svg"
 width="640.000000pt" height="1280.000000pt" viewBox="0 0 640.000000 1280.000000"
 preserveAspectRatio="xMidYMid meet">
<metadata>
Created by potrace 1.15, written by Peter Selinger 2001-2017
</metadata>
<g transform="translate(0.000000,1280.000000) scale(0.100000,-0.100000)"
fill="#6a2135" stroke="none">
<path d="M2507 12703 c-274 -445 -457 -881 -506 -1203 -41 -270 -7 -569 84
-750 89 -177 262 -279 474 -280 393 -1 591 266 592 799 1 305 -89 619 -296
1030 -102 204 -270 491 -287 491 -4 0 -31 -39 -61 -87z"/>
<path d="M4205 11085 c-506 -129 -862 -301 -1085 -525 -191 -191 -279 -365
-268 -535 7 -107 48 -187 146 -285 159 -158 319 -188 516 -96 322 151 564 481
741 1011 48 144 129 449 123 464 -2 5 -79 -11 -173 -34z"/>
<path d="M1460 10423 c0 -22 56 -237 96 -368 83 -272 193 -519 309 -695 96
-145 297 -330 434 -400 145 -73 281 -80 405 -20 93 44 200 150 246 244 43 86
52 198 25 292 -54 188 -238 412 -460 559 -214 141 -557 277 -915 365 -136 33
-140 33 -140 23z"/>
<path d="M4490 9929 c-307 -71 -651 -191 -885 -309 -294 -149 -489 -315 -642
-551 -130 -201 -148 -397 -50 -569 49 -86 171 -201 263 -246 70 -35 85 -39
175 -42 80 -4 109 0 165 17 139 45 265 126 409 263 233 220 406 542 559 1038
37 119 106 385 106 407 0 15 6 16 -100 -8z"/>
<path d="M1250 9242 c0 -5 20 -87 45 -183 146 -571 343 -985 586 -1228 357
-356 670 -414 925 -171 71 68 111 121 146 195 41 88 50 203 23 305 -59 230
-304 513 -596 688 -229 137 -567 268 -938 363 -158 40 -191 45 -191 31z"/>
<path d="M4890 8662 c-14 -2 -104 -24 -200 -48 -608 -155 -1100 -376 -1384
-623 -150 -129 -330 -358 -391 -495 -49 -110 -68 -201 -63 -300 8 -152 61
-265 183 -391 307 -318 673 -272 1101 137 53 51 125 129 160 174 210 269 409
716 548 1229 37 138 79 317 74 319 -2 1 -14 0 -28 -2z"/>
<path d="M924 7948 c25 -115 87 -350 123 -468 123 -401 255 -700 418 -945 91
-136 156 -212 264 -311 412 -374 749 -422 1041 -147 91 85 161 183 192 268 33
91 36 229 8 331 -70 259 -338 580 -645 776 -218 139 -509 267 -850 375 -137
43 -514 143 -542 143 -9 0 -12 -8 -9 -22z"/>
<path d="M5415 6133 c-22 -9 -87 -34 -145 -56 -307 -116 -635 -306 -900 -521
-188 -152 -446 -427 -599 -640 -218 -302 -438 -740 -566 -1124 -16 -45 -29
-81 -31 -80 -3 4 -20 697 -34 1393 -6 286 -13 575 -16 643 l-6 122 -113 0
-113 0 -6 -122 c-3 -68 -8 -249 -11 -403 -3 -154 -10 -476 -15 -715 -6 -239
-19 -844 -30 -1345 -19 -892 -31 -1411 -50 -2250 -5 -231 -12 -558 -16 -728
l-7 -307 248 0 248 0 -7 293 c-5 225 -3 331 9 461 158 1774 890 3595 2102
5234 62 84 113 155 113 157 0 7 -10 5 -55 -12z"/>
</g>
</svg>
