<?xml version="1.0" standalone="no"?>
<!DOCTYPE svg PUBLIC "-//W3C//DTD SVG 20010904//EN"
 "http://www.w3.org/TR/2001/REC-SVG-20010904/DTD/svg10.dtd">
<svg version="1.0" xmlns="http://www.w3.org/2000/svg"
 width="1279.000000pt" height="1280.000000pt" viewBox="0 0 1279.000000 1280.000000"
 preserveAspectRatio="xMidYMid meet">
<metadata>
Created by potrace 1.15, written by Peter Selinger 2001-2017
</metadata>
<g transform="translate(0.000000,1280.000000) scale(0.100000,-0.100000)"
fill="#c13c37" stroke="none">
<path d="M6355 12794 c-272 -38 -311 -52 -446 -162 -29 -24 -107 -76 -174
-115 -66 -39 -175 -106 -243 -149 -68 -44 -143 -86 -168 -95 -68 -23 -142 -13
-251 36 -215 95 -360 125 -603 125 -288 -1 -417 -36 -676 -189 -305 -179 -400
-250 -440 -328 -25 -48 -64 -244 -71 -358 -8 -142 1 -195 117 -690 55 -233
100 -433 100 -444 0 -42 -98 -174 -266 -355 -48 -52 -107 -117 -132 -143 l-44
-48 -89 14 c-49 8 -89 11 -89 8 0 -18 -30 -498 -35 -564 l-6 -78 25 7 c23 5
25 3 31 -40 12 -79 1 -306 -18 -348 l-16 -37 -98 40 c-54 22 -110 41 -125 41
-80 3 -159 -119 -283 -437 -35 -88 -91 -223 -125 -300 -35 -77 -102 -237 -150
-355 -108 -266 -136 -330 -348 -810 -93 -212 -193 -441 -223 -509 l-53 -125
-255 -269 c-141 -147 -259 -274 -263 -282 -20 -34 -39 -145 -53 -301 -8 -94
-28 -256 -45 -360 -17 -104 -42 -259 -56 -344 -14 -85 -38 -237 -54 -337 -17
-101 -43 -265 -60 -365 -16 -101 -40 -253 -54 -338 -14 -85 -39 -239 -56 -342
-45 -283 -87 -541 -121 -753 -52 -327 -73 -395 -216 -700 -187 -397 -198 -439
-214 -820 -22 -533 -10 -566 350 -969 64 -71 130 -146 148 -165 31 -36 32 -36
110 -35 120 3 262 52 658 232 126 57 329 137 470 187 597 208 699 247 961 368
425 197 799 399 1714 927 250 144 610 349 800 455 522 292 671 381 1484 894
1753 1106 3249 1972 4976 2881 440 231 650 347 902 496 203 121 179 84 199
313 13 145 8 257 -15 336 -8 28 -46 142 -85 255 -93 269 -98 304 -81 574 13
216 9 315 -14 371 -7 16 -48 77 -91 135 -43 58 -104 139 -134 180 -106 142
-193 223 -370 343 -179 121 -290 217 -324 281 -21 38 -22 56 -23 261 -1 181
-5 227 -18 260 -36 85 -441 728 -498 790 -72 77 -110 98 -338 180 -719 260
-995 453 -1353 945 -42 58 -96 126 -120 151 -55 57 -474 339 -580 390 -149 72
-203 73 -485 10 -125 -29 -167 -36 -392 -67 -63 -9 -148 -26 -187 -39 l-73
-23 0 42 c0 54 -50 139 -128 219 -175 178 -502 387 -663 423 -62 14 -391 27
-454 18z"/>
</g>
</svg>
