<?xml version="1.0" standalone="no"?>
<!DOCTYPE svg PUBLIC "-//W3C//DTD SVG 20010904//EN"
 "http://www.w3.org/TR/2001/REC-SVG-20010904/DTD/svg10.dtd">
<svg version="1.0" xmlns="http://www.w3.org/2000/svg"
 width="1280.000000pt" height="684.000000pt" viewBox="0 0 1280.000000 684.000000"
 preserveAspectRatio="xMidYMid meet">
<metadata>
Created by potrace 1.15, written by Peter Selinger 2001-2017
</metadata>
<g transform="translate(0.000000,684.000000) scale(0.100000,-0.100000)"
fill="#e38927" stroke="none">
<path d="M10353 6826 c-44 -7 -121 -23 -170 -34 -48 -12 -162 -37 -253 -57
-894 -194 -2091 -606 -3215 -1105 -659 -293 -1082 -506 -1671 -841 -717 -408
-1069 -559 -1484 -638 -302 -58 -679 -56 -1085 5 -183 27 -453 78 -615 115
l-86 20 -14 42 c-14 38 -22 46 -91 80 -135 68 -210 53 -359 -72 -55 -47 -100
-76 -129 -85 l-45 -13 -96 -189 c-93 -183 -123 -236 -226 -394 -92 -142 -141
-281 -214 -607 -42 -189 -79 -311 -149 -495 -22 -59 -59 -173 -81 -255 -60
-220 -91 -287 -208 -462 -155 -230 -178 -292 -153 -423 15 -73 90 -272 128
-337 67 -115 158 -175 231 -153 21 6 50 24 65 40 44 46 187 339 194 397 11 91
65 123 418 244 230 80 545 171 700 203 27 5 68 14 90 19 22 5 90 18 150 29
736 134 1414 145 2190 34 570 -81 1511 -301 2480 -581 919 -265 1596 -482
2720 -873 325 -112 752 -272 886 -330 171 -75 266 -98 454 -107 149 -7 247 8
365 56 184 75 339 189 561 410 318 318 578 687 794 1126 97 197 148 330 190
494 29 116 71 323 86 423 6 40 14 100 19 133 13 86 37 306 52 475 20 224 17
892 -5 1100 -50 472 -124 788 -252 1081 -112 258 -349 591 -610 858 -339 348
-708 568 -1090 651 -127 28 -354 35 -472 16z"/>
</g>
</svg>
